<svg width="80" height="64" viewBox="0 0 80 64" fill="none" xmlns="http://www.w3.org/2000/svg">
<path d="M74.7934 36.65H5.06369C2.50693 36.65 0.415039 34.5575 0.415039 32C0.415039 29.4425 2.50693 27.35 5.06369 27.35H74.7934C77.3502 27.35 79.4421 29.4425 79.4421 32C79.4421 34.5575 77.3502 36.65 74.7934 36.65ZM74.7934 9.9125H5.06369C2.50693 9.9125 0.415039 7.82 0.415039 5.2625C0.415039 2.705 2.50693 0.612503 5.06369 0.612503H74.7934C77.3502 0.612503 79.4421 2.705 79.4421 5.2625C79.4421 7.82 77.3502 9.9125 74.7934 9.9125ZM74.7934 63.3875H5.06369C2.50693 63.3875 0.415039 61.295 0.415039 58.7375C0.415039 56.18 2.50693 54.0875 5.06369 54.0875H74.7934C77.3502 54.0875 79.4421 56.18 79.4421 58.7375C79.4421 61.295 77.3502 63.3875 74.7934 63.3875Z" fill="#3D4246"/>
</svg>
