<svg width="50" height="66" viewBox="0 0 50 66" fill="none" xmlns="http://www.w3.org/2000/svg">
<path d="M24.9498 26.3019C27.4489 26.2851 29.887 25.5287 31.9567 24.1281C34.0264 22.7275 35.6351 20.7455 36.5798 18.4318C37.5245 16.1182 37.7631 13.5766 37.2652 11.1276C36.7674 8.67864 35.5556 6.43187 33.7826 4.67067C32.0096 2.90948 29.7548 1.71271 27.3025 1.2313C24.8502 0.74989 22.3103 1.00539 20.003 1.96558C17.6958 2.92577 15.7245 4.54766 14.3378 6.6267C12.9511 8.70575 12.211 11.1489 12.211 13.6479C12.2132 15.3162 12.5448 16.9676 13.1868 18.5074C13.8289 20.0472 14.7686 21.445 15.9522 22.6207C17.1358 23.7964 18.5399 24.7268 20.0839 25.3585C21.628 25.9902 23.2816 26.3108 24.9498 26.3019ZM24.9498 7.77108C26.1043 7.78782 27.2281 8.14525 28.1802 8.79848C29.1322 9.45171 29.8701 10.3716 30.3011 11.4428C30.7321 12.5139 30.8371 13.6885 30.6029 14.8191C30.3687 15.9497 29.8057 16.9859 28.9846 17.7976C28.1634 18.6094 27.1208 19.1604 25.9876 19.3817C24.8544 19.6029 23.6811 19.4844 22.615 19.0411C21.5489 18.5978 20.6375 17.8494 19.9952 16.8899C19.353 15.9304 19.0085 14.8025 19.005 13.6479C19.0072 12.8719 19.1631 12.1039 19.4637 11.3884C19.7643 10.6729 20.2036 10.024 20.7563 9.47918C21.309 8.93437 21.9642 8.50443 22.6839 8.21417C23.4037 7.92391 24.1738 7.77909 24.9498 7.78807V7.77108ZM24.9498 28.9685C21.7841 28.9708 18.6498 29.5971 15.7264 30.8116C12.8029 32.0262 10.1475 33.8052 7.91216 36.0469C5.6768 38.2885 3.9053 40.9489 2.69898 43.8758C1.49266 46.8027 0.875191 49.9387 0.88189 53.1044C0.88189 55.4993 2.00291 59.8985 9.5613 62.718C14.5251 64.342 19.7285 65.1116 24.9498 64.994C36.0581 64.994 49.0178 61.8687 49.0178 53.1044C49.0245 49.9387 48.407 46.8027 47.2007 43.8758C45.9944 40.9489 44.2229 38.2885 41.9875 36.0469C39.7521 33.8052 37.0968 32.0262 34.1733 30.8116C31.2498 29.5971 28.1156 28.9708 24.9498 28.9685ZM24.9498 58.2C14.2492 58.2 7.67595 55.1936 7.67595 53.1044C7.60339 50.7915 7.99629 48.4876 8.83131 46.3295C9.66632 44.1714 10.9264 42.2031 12.5369 40.5413C14.1473 38.8796 16.0751 37.5584 18.206 36.6561C20.3369 35.7539 22.6273 35.2889 24.9413 35.2889C27.2554 35.2889 29.5458 35.7539 31.6767 36.6561C33.8075 37.5584 35.7354 38.8796 37.3458 40.5413C38.9562 42.2031 40.2164 44.1714 41.0514 46.3295C41.8864 48.4876 42.2793 50.7915 42.2067 53.1044C42.2237 55.1936 35.6505 58.2 24.9498 58.2Z" fill="#3D4246"/>
</svg>
