<svg width="42" height="64" viewBox="0 0 42 64" fill="none" xmlns="http://www.w3.org/2000/svg">
<path d="M9.23635 63.8911C7.49666 63.8896 5.79645 63.377 4.35044 62.4179C2.90443 61.4588 1.77748 60.0964 1.11194 58.5026C0.4464 56.9089 0.27211 55.1553 0.611086 53.4634C0.950062 51.7715 1.7871 50.2171 3.01648 48.9966L20.2678 31.8911L3.01648 14.7857C1.46175 13.1313 0.615336 10.9431 0.655568 8.68216C0.6958 6.4212 1.61953 4.26399 3.23216 2.665C4.84478 1.06601 7.02039 0.150093 9.30063 0.110201C11.5809 0.0703086 13.7877 0.909561 15.4562 2.45115L38.9274 25.7239C40.5757 27.3602 41.5015 29.5784 41.5015 31.8911C41.5015 34.2039 40.5757 36.4221 38.9274 38.0584L15.4562 61.3312C13.8072 62.9683 11.5699 63.8891 9.23635 63.8911Z" fill="#3D4246"/>
</svg>
