<svg width="70" height="70" viewBox="0 0 70 70" fill="none" xmlns="http://www.w3.org/2000/svg">
<path d="M68.8384 63.0889L49.4807 43.7377C57.5794 33.0748 56.5917 17.6728 46.9129 7.99718C36.2464 -2.66573 18.8639 -2.66573 7.99988 7.99718C-2.66663 18.6601 -2.66663 36.0367 7.99988 46.897C13.1356 52.031 20.0491 54.9929 27.3576 54.9929C33.2834 54.9929 39.0117 53.0183 43.7524 49.464L63.1101 68.8152C63.9002 69.6051 64.8879 70 65.8755 70C66.8632 70 67.8508 69.6051 68.6409 68.8152C70.4187 67.0381 70.4187 64.6685 68.8384 63.0889ZM27.5551 46.897C22.4194 46.897 17.4812 44.9224 13.7282 41.1707C6.0246 33.4697 6.0246 21.2271 13.7282 13.5261C17.4812 9.77433 22.6169 7.79972 27.5551 7.79972C32.4933 7.79972 37.629 9.77433 41.3821 13.5261C49.0857 21.2271 49.0857 33.4697 41.3821 41.1707C37.629 44.9224 32.6908 46.897 27.5551 46.897Z" fill="#3D4246"/>
</svg>
