<svg width="61" height="64" viewBox="0 0 61 64" fill="none" xmlns="http://www.w3.org/2000/svg">
<path d="M60.3837 56.9575L55.0237 12.0675H45.1412C43.9687 5.19999 37.7712 0.00749207 30.2337 0.00749207C22.6962 0.00749207 16.4987 5.19999 15.3262 12.0675H5.4437L0.0836979 56.9575C-0.251302 59.47 0.753698 60.9775 1.5912 61.9825C2.4287 62.82 3.9362 63.9925 6.7837 63.9925H53.6837C55.8612 63.9925 57.7037 63.3225 58.8762 61.815C60.0487 60.6425 60.5512 58.8 60.3837 56.9575ZM30.2337 6.70749C33.9187 6.70749 37.1012 9.05249 38.1062 12.0675H22.1937C23.3662 8.88499 26.5487 6.70749 30.2337 6.70749ZM6.7837 57.2925L11.4737 18.7675H15.1587V23.7925C15.1587 25.635 16.6662 27.1425 18.5087 27.1425C20.3512 27.1425 21.8587 25.635 21.8587 23.7925V18.7675H38.6087V23.7925C38.6087 25.635 40.1162 27.1425 41.9587 27.1425C43.8012 27.1425 45.3087 25.635 45.3087 23.7925V18.7675H48.9937L53.6837 57.2925H6.7837Z" fill="#3D4246"/>
</svg>
