<svg width="64" height="64" viewBox="0 0 64 64" fill="none" xmlns="http://www.w3.org/2000/svg">
<path d="M38.1512 32.0016L62.5496 7.6256C64.3256 5.8528 64.3256 3.1936 62.5496 1.4224C60.7752 -0.350396 58.1128 -0.350396 56.3384 1.4224L31.94 25.7968L7.5416 1.424C5.7672 -0.348796 3.1064 -0.348796 1.332 1.424C-0.444 3.1968 -0.444 5.856 1.332 7.6272L25.7304 32.0016L1.3304 56.3744C-0.4424 58.1472 -0.4424 60.8064 1.3304 62.5776C2.2184 63.464 3.3272 63.9072 4.4376 63.9072C5.548 63.9072 6.6552 63.464 7.5416 62.5792L31.9416 38.2048L56.3384 62.5776C57.2264 63.464 58.3352 63.9072 59.444 63.9072C60.5528 63.9072 61.6632 63.464 62.5496 62.5792C64.3256 60.8048 64.3256 58.1472 62.5496 56.3744L38.1512 32.0016Z" fill="#3D4246"/>
</svg>
