<svg width="49" height="64" viewBox="0 0 49 64" fill="none" xmlns="http://www.w3.org/2000/svg">
<path d="M0.212891 24C0.212891 17.6348 2.74145 11.5303 7.24233 7.02944C11.7432 2.52856 17.8477 0 24.2129 0C30.5781 0 36.6826 2.52856 41.1835 7.02944C45.6843 11.5303 48.2129 17.6348 48.2129 24C48.2129 40 24.2129 64 24.2129 64C24.2129 64 0.212891 40 0.212891 24ZM14.2129 24C14.2129 26.6522 15.2665 29.1957 17.1418 31.0711C19.0172 32.9464 21.5607 34 24.2129 34C26.8651 34 29.4086 32.9464 31.284 31.0711C33.1593 29.1957 34.2129 26.6522 34.2129 24C34.2129 21.3478 33.1593 18.8043 31.284 16.9289C29.4086 15.0536 26.8651 14 24.2129 14C21.5607 14 19.0172 15.0536 17.1418 16.9289C15.2665 18.8043 14.2129 21.3478 14.2129 24Z" fill="#3D4246"/>
</svg>
